Patient4_TMGait_0pt8_01_right_39_EMG.mot
version=1
nRows=16
nColumns=33
inDegrees=no
endheader
time	1LAddLong	2LGlutMax	3LGlutMed	4LIliopsoas	5LSemiMemb	6LBicFemLong	7LRecFem	8LVastMed	9LVastLat	10LGasMed	11LTibAnt	12lTibPost	13LPeroneusLong	14LSol	15LExtDigLong	16LFlexDigLong	17RAddLong	18RGlutMax	19RGlutMed	20RIliopsoas	21RSemiMemb	22RBicFemLong	23RRecFem	24RVastMed	25RVastLat	26RGasMed	27RTibAnt	28RTibPost	29RPeroneusLong	30RSol	31RExtDigLong	32RFlexDigLong
44.16	-0.006866	-0.011444	-0.041046	0.02121	-0.001373	-0.024109	-0.09613	-0.002594	0.079041	-0.095825	0.10513	-0.003662	-0.011749	0.11139	-0.04303	0.062103	0.031281	-0.046082	0.74417	-0.041656	0.051422	0.39063	0.014801	0.27542	0.10132	0.002441	0.00473	0.007172	-1.5057	-0.056763	0.000916	-0.030212
44.161	-0.012512	-0.046387	-0.071259	-0.001678	-0.002136	-0.014801	-0.11948	-0.00885	0.075378	-0.043793	0.1239	0.000153	-0.023651	0.017242	-0.10284	0.037842	0.006561	-0.016174	1.2326	-0.079956	0.058899	0.004425	0.096741	0.37827	0.30807	-0.015106	0.16769	-0.095673	0.21851	0.35095	0.002594	-0.037079
44.162	-0.014343	-0.075836	-0.085907	-0.015717	0.002747	-0.014648	-0.16098	0.003815	0.054169	-0.035706	0.074921	-0.002289	-0.054016	-0.051117	-0.21027	0.026398	-0.005188	-0.040588	0.49744	-0.04715	-0.093079	-0.23834	0.27145	-0.087738	0.22354	-0.027161	0.056763	-0.22873	0.13641	0.38818	0.001068	-0.034637
44.163	-0.019684	-0.038757	-0.10666	0.020142	-0.001373	-0.032196	-0.17929	0.008392	0.035553	-0.057373	-0.019073	-0.002594	-0.054016	0.049286	-0.017242	0.027924	0.000153	0.089874	0.58914	-0.014343	-0.25207	-0.32242	0.29251	0.11063	0.58945	-0.019531	-0.045471	0.18768	-1.0716	-0.060883	-0.001526	-0.037384
44.164	-0.016174	-0.031891	-0.081482	0.014648	-0.003204	-0.036926	-0.19516	0.007629	0.0177	-0.058899	-0.040894	-0.003357	-0.046539	0.17532	0.09491	0.032654	-0.029602	0.003052	0.084839	-0.063934	-0.11261	-0.26093	0.26016	0.51605	0.71808	-0.097351	0.12756	0.19455	-1.261	0.05661	-0.00061	-0.035858
44.165	-0.010223	-0.027161	-0.068359	0.012512	0.00824	-0.034332	-0.11032	0.010681	-0.00824	-0.071259	-0.14771	0.003357	-0.036163	0.19043	0.36484	0.028229	-0.040436	0.011749	-0.48386	-0.092163	0.30334	-0.010529	0.13397	0.62897	0.22446	-0.093079	-0.029297	0.056305	1.5379	0.33386	0.000305	-0.033417
44.166	0.016022	-0.037689	-0.077209	0.003357	0.00351	-0.05249	0.018768	0.011139	-0.006409	-0.049896	-0.10407	0.003204	-0.027771	0.15045	-0.27618	0.027771	-0.071869	0.12375	-0.42954	-0.039673	0.24063	0.25146	-0.02655	0.11963	-0.21835	-0.023956	-0.18601	0.021057	1.7377	0.12848	0.002594	-0.026398
44.167	0.021362	0.017548	-0.095673	-0.008545	0.006561	-0.066376	0.11444	0.006714	0.001068	-0.053406	-0.10696	-0.003967	-0.067902	0.13016	0.042114	0.021667	-0.046692	0.28564	-0.64545	0.049591	0.14877	0.1442	-0.003815	-0.29037	-0.50018	-0.018768	-0.14771	0.036926	0.64224	0.052338	0.000305	-0.019226
44.168	0.023193	0.052338	-0.086823	0.006409	-0.003662	-0.066986	0.15533	0.006104	0.001221	-0.022888	-0.027466	-0.001373	-0.038452	0.09613	-0.4599	0.032196	0.045319	0.40192	-0.81894	0.14664	0.12726	0.040436	0.29831	-0.53116	-0.51712	-0.020752	-0.012054	0.032501	-0.26382	0.018616	-0.005035	-0.018921
44.169	-0.017395	0.092621	-0.052948	0.00351	0.000458	-0.045929	0.19913	0.006561	-0.003204	0.16647	0.030823	-0.002747	0.01236	0.065002	-0.39551	0.016785	0.068665	0.51193	-0.18295	-0.067139	0.066986	0.04715	0.76599	-0.51331	-0.67291	-0.023193	0.006561	0.062408	-0.052948	-0.15503	0.00061	-0.023499
44.17	-0.016479	0.095062	-0.038147	0.007324	0.007019	-0.058289	0.25085	0.009003	-0.003052	0.26825	0.22675	-0.002594	-0.079346	0.057373	-0.092163	0.023804	0.071106	0.52948	0.89386	-0.3154	-0.16785	0.16068	1.0475	0.17075	-0.6192	-0.005951	-0.052643	-0.18097	0.90164	0.021667	0.000763	-0.014038
44.171	-0.000153	0.10757	-0.023956	0.006409	0.00061	-0.064697	0.24612	0.01236	-0.010376	0.26443	0.33066	-0.010834	-0.12009	0.097656	0.013123	0.023956	0.06424	0.48752	-0.41901	-0.21332	-0.33661	0.2562	1.2306	0.11505	-0.6282	-0.000305	0.003357	-0.23987	0.88028	0.095367	0.002136	-0.022888
44.172	-0.002594	0.092621	-0.011444	-0.003967	0.003204	-0.088348	0.26245	0.008698	-0.032654	0.13977	0.17136	0.00412	-0.040283	0.032043	-0.072479	0.030518	0.055237	0.4483	-0.024872	-0.15671	-0.11353	0.28473	0.98908	-0.28137	-0.54886	0.000153	0.083771	-0.016022	-0.079803	-0.14511	-0.000458	-0.026245
44.173	-0.00351	0.074921	-0.0383	0.002289	0.008087	-0.077057	0.29282	0.010223	-0.022736	-0.34668	-0.33829	-0.000458	0.068207	0.091095	0.05722	0.018463	0.045319	0.28473	-0.86762	0.1648	-0.070801	0.078125	0.8934	-0.71152	-0.36575	-0.034637	0.18601	0.14938	0.10864	-0.27817	0.001678	-0.024719
44.174	0.000458	0.019073	-0.043793	0.00885	0.012512	-0.055695	0.40161	0.006409	-0.009308	-0.40832	-0.35858	-0.007782	0.10315	0.14267	-0.16586	0.018463	0.020447	-0.04303	-1.647	0.22598	-0.054321	-0.16876	0.88196	-0.84778	-0.049438	-0.023346	0.24262	0.062408	-0.12405	-0.242	0.006561	-0.024872
44.175	0.005646	0.00824	0.002289	0.009308	0.013275	-0.058441	0.46692	0.010529	0.004425	-0.28015	-0.017242	-0.012207	-0.005798	0.10529	0.30411	0.01236	-0.026093	-0.12466	-1.4133	0.19959	-0.054321	-0.18677	0.83893	-0.6012	0.14694	0.006104	0.18326	0.021973	0.49149	0.00824	0.005188	-0.018616
